<?xml version="1.0" standalone="no"?>
<!DOCTYPE svg PUBLIC "-//W3C//DTD SVG 20010904//EN"
 "http://www.w3.org/TR/2001/REC-SVG-20010904/DTD/svg10.dtd">
<svg version="1.0" xmlns="http://www.w3.org/2000/svg"
 width="512.000000pt" height="512.000000pt" viewBox="0 0 512.000000 512.000000"
 preserveAspectRatio="xMidYMid meet">
<metadata>
Created by potrace 1.14, written by Peter Selinger 2001-2017
</metadata>
<g transform="translate(0.000000,512.000000) scale(0.100000,-0.100000)"
fill="#000000" stroke="none">
<path d="M2460 4997 c-52 -66 -100 -125 -105 -131 -6 -6 -30 -36 -55 -66 -25
-30 -52 -64 -62 -75 -9 -11 -116 -144 -239 -295 -123 -151 -226 -277 -229
-280 -3 -3 -59 -72 -125 -154 -66 -82 -164 -203 -217 -269 -54 -66 -95 -123
-93 -126 7 -6 2435 -7 2446 0 5 3 -25 48 -67 100 -42 52 -89 110 -105 129 -15
19 -76 94 -134 165 -58 72 -112 137 -118 145 -7 8 -32 40 -57 70 -25 30 -50
62 -57 70 -19 24 -380 468 -535 658 -77 95 -143 174 -147 176 -3 2 -49 -51
-101 -117z"/>
<path d="M1675 4673 c-126 -73 -241 -139 -255 -147 -30 -15 -921 -531 -962
-556 l-28 -17 188 -109 c103 -60 201 -116 217 -125 17 -9 53 -30 82 -47 l52
-31 176 217 c97 119 193 237 213 261 21 24 44 53 52 63 25 32 114 143 120 148
3 3 32 39 65 80 32 41 61 77 64 80 18 15 252 312 250 314 -2 2 -107 -57 -234
-131z"/>
<path d="M3210 4805 c0 -5 103 -138 120 -155 3 -3 23 -27 45 -55 22 -27 48
-59 57 -70 14 -17 403 -495 511 -629 18 -22 55 -67 82 -101 28 -34 65 -80 84
-103 18 -23 39 -42 46 -42 11 0 32 11 138 73 18 11 114 66 215 124 100 58 181
107 180 109 -3 2 -670 388 -738 427 -19 10 -146 84 -282 163 -137 79 -252 144
-258 144 -5 0 -10 5 -10 10 0 6 -4 10 -10 10 -8 0 -64 31 -147 82 -18 11 -33
17 -33 13z"/>
<path d="M279 3683 c-4 -38 -3 -1703 1 -1703 3 0 22 44 42 98 20 53 118 311
218 572 100 261 190 498 200 525 10 28 32 85 48 127 l30 78 -57 34 c-31 18
-101 59 -156 90 -55 32 -107 61 -115 66 -171 102 -210 123 -211 113z"/>
<path d="M4570 3535 c-161 -94 -264 -159 -262 -167 2 -7 60 -161 129 -343 69
-181 134 -350 143 -375 156 -413 254 -666 259 -672 3 -4 6 378 5 848 0 470 -3
856 -5 858 -2 3 -123 -65 -269 -149z"/>
<path d="M1270 3292 c0 -2 41 -74 91 -160 50 -86 103 -177 117 -202 20 -36
141 -246 299 -518 10 -17 63 -109 117 -204 55 -95 198 -344 319 -553 237 -408
254 -438 307 -533 19 -34 37 -62 40 -62 3 0 30 44 60 97 30 53 69 121 85 150
17 29 54 94 84 145 30 51 62 107 71 123 10 17 41 71 70 120 29 50 64 110 78
135 13 25 39 70 57 100 35 59 579 1002 611 1059 10 18 24 41 29 50 23 37 145
251 145 253 0 2 -580 3 -1290 3 -710 1 -1290 -1 -1290 -3z"/>
<path d="M1025 3078 c-6 -16 -539 -1416 -565 -1483 -90 -231 -109 -284 -115
-307 -7 -28 -11 -26 110 -44 17 -2 41 -6 55 -9 28 -5 65 -11 125 -20 23 -3 52
-7 65 -10 13 -3 42 -7 65 -10 54 -8 90 -14 155 -25 30 -5 73 -12 95 -15 22 -4
47 -8 55 -10 8 -2 35 -7 60 -10 25 -3 57 -8 73 -11 15 -2 39 -6 55 -8 85 -13
119 -19 137 -23 11 -2 31 -5 45 -8 61 -9 237 -37 260 -41 30 -5 129 -20 185
-29 22 -3 51 -8 65 -10 162 -27 211 -35 245 -40 22 -3 48 -8 58 -11 23 -7 30
-21 -116 231 -61 105 -124 215 -140 245 -16 30 -36 62 -43 71 -8 8 -14 18 -14
22 0 3 -38 70 -84 149 -89 153 -609 1054 -635 1101 -9 16 -21 36 -26 45 -6 9
-43 74 -84 145 -41 70 -76 127 -78 127 -2 0 -6 -6 -8 -12z"/>
<path d="M3978 2908 c-58 -101 -154 -266 -213 -368 -59 -102 -130 -225 -159
-275 -28 -49 -55 -98 -61 -107 -5 -10 -89 -154 -185 -320 -96 -166 -189 -327
-206 -357 -17 -31 -80 -139 -139 -241 -164 -282 -168 -291 -153 -286 7 3 31 7
53 10 33 4 137 20 265 41 14 2 57 9 95 15 114 18 129 20 155 25 14 3 39 7 55
9 56 9 160 26 185 30 14 3 74 12 134 21 59 9 118 18 129 21 12 2 39 6 62 9 22
3 47 8 55 10 8 2 35 7 60 10 25 4 86 13 135 21 113 19 131 22 180 29 22 4 107
17 190 31 82 13 153 24 157 24 4 0 8 5 8 11 0 5 -58 162 -129 347 -70 185
-224 589 -341 897 -117 308 -216 564 -220 568 -4 4 -54 -75 -112 -175z"/>
<path d="M920 864 c0 -2 130 -80 175 -105 17 -9 113 -65 215 -124 102 -59 201
-117 220 -127 19 -11 64 -37 100 -58 36 -21 82 -47 103 -59 58 -33 84 -48 357
-206 140 -81 270 -156 288 -166 l32 -19 0 313 0 313 -137 22 c-76 13 -149 25
-163 26 -48 7 -175 26 -233 37 -32 5 -70 12 -85 14 -15 2 -58 9 -97 15 -83 14
-88 15 -185 29 -41 7 -87 14 -101 16 -81 14 -270 45 -304 50 -22 3 -73 11
-112 18 -40 7 -73 12 -73 11z"/>
<path d="M4189 865 c-4 -4 -53 -12 -224 -39 -32 -5 -154 -24 -195 -31 -69 -12
-228 -37 -250 -40 -14 -2 -108 -17 -210 -34 -102 -16 -232 -37 -290 -47 -58
-9 -112 -18 -120 -19 -8 -2 -54 -9 -102 -15 l-88 -13 0 -314 0 -315 33 20 c28
18 435 252 527 304 19 11 91 53 160 93 69 40 141 82 160 92 19 11 80 46 135
78 55 32 114 66 130 75 271 155 361 210 344 210 -3 0 -8 -2 -10 -5z"/>
</g>
</svg>
